<svg xmlns="http://www.w3.org/2000/svg" width="64" height="64" enable-background="new 0 0 64 64" viewBox="0 0 64 64"><path d="M61,15.9941406H32.630188l8.0768433-8.0732422c0.390625-0.390625,0.390625-1.0234375,0-1.4140625l-4.2197266-4.2197266c-0.3759766-0.3754883-1.0400391-0.3745117-1.4140625,0L21.3733521,15.9941406H3c-0.5527344,0-1,0.4477539-1,1v44c0,0.5522461,0.4472656,1,1,1h58c0.5527344,0,1-0.4477539,1-1v-44C62,16.4418945,61.5527344,15.9941406,61,15.9941406z M35.7802734,4.4086914l2.8056641,2.8051758L19.7802734,26.0102539l-4.1972656,1.4013672l1.4013672-4.1967773l5.5126953-5.5136719c0.0023193-0.0023193,0.003479-0.0054321,0.0057983-0.0078125L35.7802734,4.4086914z M60,59.9941406H4v-42h15.3743896l-3.9710693,3.9731445c-0.109375,0.109375-0.1923828,0.2431641-0.2412109,0.3901367l-2.1103516,6.3198242c-0.1201172,0.359375-0.0263672,0.7558594,0.2412109,1.0239258c0.0849609,0.0847778,0.1853027,0.1450806,0.2907104,0.1936035c0.0302124,0.0139771,0.0597534,0.024231,0.0911255,0.0350952c0.088501,0.0306396,0.1790161,0.0487671,0.272583,0.053894c0.0180054,0.0009766,0.0345459,0.010376,0.0526123,0.010376c0.0070801,0,0.0139771-0.0032959,0.0210571-0.003418c0.0992432-0.0018921,0.1986084-0.0157471,0.2953491-0.0478516l6.3203125-2.1098633c0.1474609-0.0493164,0.2802734-0.1318359,0.390625-0.2412109l9.6064453-9.5976563H60V59.9941406z"/><path d="M10 39.9941406h44c.5527344 0 1-.4477539 1-1v-6c0-.5522461-.4472656-1-1-1H10c-.5527344 0-1 .4477539-1 1v6C9 39.5463867 9.4472656 39.9941406 10 39.9941406zM11 33.9941406h42v4H11V33.9941406zM28 43.9941406H10c-.5527344 0-1 .4477539-1 1v12c0 .5522461.4472656 1 1 1h18c.5527344 0 1-.4477539 1-1v-12C29 44.4418945 28.5527344 43.9941406 28 43.9941406zM27 55.9941406H11v-10h16V55.9941406zM41 44.9941406v12c0 .5522461.4472656 1 1 1h14c.5527344 0 1-.4477539 1-1v-12c0-.5522461-.4472656-1-1-1H42C41.4472656 43.9941406 41 44.4418945 41 44.9941406zM43 45.9941406h12v10H43V45.9941406zM36 25.9941406h18c.5527344 0 1-.4477539 1-1s-.4472656-1-1-1H36c-.5527344 0-1 .4477539-1 1S35.4472656 25.9941406 36 25.9941406z"/></svg>