<svg xmlns="http://www.w3.org/2000/svg" xmlns:xlink="http://www.w3.org/1999/xlink" width="500" zoomAndPan="magnify" viewBox="0 0 375 374.999991" height="500" preserveAspectRatio="xMidYMid meet" version="1.0"><defs><g/><clipPath id="id1"><path d="M 82.460938 151.179688 L 278.921875 151.179688 L 278.921875 222.269531 L 82.460938 222.269531 Z M 82.460938 151.179688 " clip-rule="nonzero"/></clipPath><clipPath id="id2"><path d="M 176 84.304688 L 254 84.304688 L 254 144 L 176 144 Z M 176 84.304688 " clip-rule="nonzero"/></clipPath></defs><g clip-path="url(#id1)"><path fill="#503524" d="M 264.578125 155.257812 C 259.332031 152.179688 253.472656 151.40625 247.492188 151.40625 C 243.839844 151.40625 146.609375 151.347656 133.089844 151.347656 C 125.0625 151.34375 116.371094 150.609375 108.570312 152.75 C 98.652344 155.472656 90.226562 162.628906 85.839844 171.675781 C 81.175781 181.300781 81.394531 192.296875 85.839844 201.933594 C 90.085938 211.121094 98.773438 217.976562 108.570312 220.859375 C 113.042969 222.171875 119 222.230469 119 222.230469 C 120.78125 222.246094 123.695312 222.261719 125.476562 222.261719 L 130.695312 222.261719 L 229.453125 222.269531 C 231.234375 222.269531 232.691406 220.847656 232.691406 219.113281 L 232.691406 218.71875 C 232.691406 216.980469 231.234375 215.558594 229.453125 215.558594 L 137.554688 215.71875 C 133.726562 215.734375 130.960938 215.777344 130.695312 215.785156 C 128.039062 215.90625 113.117188 216.378906 105.054688 212.308594 C 96.417969 207.945312 90.390625 199.335938 89.367188 189.894531 C 88.304688 180.039062 92.550781 170.617188 100.289062 164.320312 C 105.59375 160.003906 112.503906 158.035156 119.324219 158.035156 C 122.191406 158.035156 224.5 158.09375 246.714844 158.09375 C 251.796875 158.09375 256.542969 158.492188 261.113281 161.035156 C 269.785156 165.851562 273.753906 176.046875 271.257812 185.332031 C 268.746094 194.675781 259.71875 201.015625 249.96875 201.128906 C 247.144531 201.164062 154.078125 201.15625 151.316406 201.109375 C 141.175781 200.9375 134.636719 189.894531 138.804688 181.121094 C 141.574219 175.296875 150.382812 173.558594 150.382812 173.558594 C 152.125 173.21875 155.011719 172.933594 156.792969 172.933594 L 228.941406 172.933594 C 230.71875 172.933594 232.179688 171.515625 232.179688 169.777344 L 232.179688 169.398438 C 232.179688 167.664062 230.71875 166.242188 228.941406 166.242188 L 159.691406 166.242188 C 157.910156 166.242188 154.996094 166.257812 153.214844 166.277344 C 153.214844 166.277344 147.460938 166.335938 142.980469 168.1875 C 132.828125 172.371094 128.191406 184.632812 132.042969 194.425781 C 135.253906 202.605469 143.398438 207.8125 152.3125 207.8125 C 155.890625 207.8125 224.5 207.816406 246.714844 207.816406 C 252.199219 207.816406 257.351562 207.296875 262.457031 205.050781 C 272.160156 200.785156 278.238281 191.015625 278.875 180.851562 C 279.53125 170.464844 273.589844 160.546875 264.578125 155.257812 " fill-opacity="1" fill-rule="nonzero"/></g><g clip-path="url(#id2)"><path fill="#8c52ff" d="M 253.359375 84.339844 C 252.007812 89.535156 250.511719 94.289062 248.894531 98.636719 C 248.796875 98.882812 248.710938 99.132812 248.613281 99.378906 C 248.085938 100.757812 247.554688 102.089844 247.003906 103.386719 C 246.273438 105.136719 245.507812 106.816406 244.726562 108.417969 C 242.972656 112.023438 241.132812 115.269531 239.210938 118.199219 C 221.859375 144.753906 198.550781 145.09375 186.9375 143.222656 C 186.261719 143.121094 185.632812 143.003906 185.046875 142.882812 C 184.53125 142.785156 184.035156 142.671875 183.589844 142.566406 C 181.125 142 179.710938 141.460938 179.710938 141.460938 C 180.742188 139.945312 181.941406 138.324219 183.296875 136.613281 C 186.636719 132.378906 190.945312 127.640625 196.21875 122.820312 C 200.914062 118.53125 206.367188 114.183594 212.625 110.074219 C 213.445312 109.535156 214.273438 108.996094 215.121094 108.472656 C 216.632812 107.519531 218.203125 106.582031 219.808594 105.664062 C 221.222656 104.863281 222.667969 104.070312 224.140625 103.296875 C 224.535156 103.09375 224.925781 102.894531 225.328125 102.691406 C 225.894531 102.40625 226.472656 102.109375 227.058594 101.828125 C 228.464844 101.132812 229.898438 100.453125 231.363281 99.800781 C 229.363281 100.480469 227.40625 101.238281 225.472656 102.058594 C 225.410156 102.082031 225.339844 102.113281 225.277344 102.136719 C 223.390625 102.933594 221.539062 103.789062 219.722656 104.6875 C 219.355469 104.867188 218.988281 105.058594 218.625 105.25 C 216.605469 106.277344 214.632812 107.355469 212.714844 108.476562 C 199.609375 116.125 189.042969 125.585938 182.859375 132.027344 C 182.523438 132.375 182.199219 132.722656 181.890625 133.058594 C 181.339844 133.636719 180.84375 134.195312 180.378906 134.722656 C 179.316406 135.914062 178.484375 136.921875 177.886719 137.710938 L 177.886719 137.71875 L 177.878906 137.722656 C 177.328125 136.230469 176.820312 134.46875 176.476562 132.503906 C 175.921875 129.394531 175.785156 125.773438 176.589844 121.929688 C 177.484375 117.605469 179.589844 112.996094 183.628906 108.519531 C 183.746094 108.386719 183.871094 108.25 183.996094 108.117188 C 190.21875 101.414062 200.871094 95.019531 218.464844 90.296875 C 220.28125 89.816406 222.164062 89.347656 224.121094 88.894531 C 232.433594 86.992188 242.105469 85.433594 253.359375 84.339844 " fill-opacity="1" fill-rule="nonzero"/></g><path fill="#8c52ff" d="M 173.609375 141.195312 C 167.0625 130.898438 143.386719 120.390625 143.394531 120.363281 C 157.75 126.207031 166.988281 130.0625 174.289062 139.101562 C 175.867188 133.03125 177.019531 116.925781 146.140625 113.992188 C 140.960938 113.5 134.890625 113.378906 127.765625 113.738281 C 129.921875 119.015625 132.3125 123.382812 134.828125 126.980469 C 151.382812 150.707031 173.550781 141.339844 173.609375 141.195312 " fill-opacity="1" fill-rule="nonzero"/><g fill="#8c52ff" fill-opacity="1"><g transform="translate(87.761717, 271.467669)"><g><path d="M 2.429688 0 L 9.054688 0 L 9.054688 -5.675781 L 12.109375 -5.675781 C 17.949219 -5.675781 21.65625 -9.054688 21.65625 -14.339844 C 21.65625 -19.621094 17.949219 -22.96875 12.109375 -22.96875 L 2.429688 -22.96875 Z M 8.992188 -11.222656 L 8.992188 -17.390625 L 11.484375 -17.390625 C 13.683594 -17.390625 14.960938 -16.210938 14.960938 -14.304688 C 14.960938 -12.371094 13.683594 -11.222656 11.484375 -11.222656 Z M 8.992188 -11.222656 "/></g></g></g><g fill="#8c52ff" fill-opacity="1"><g transform="translate(110.172681, 271.467669)"><g><path d="M 11.125 0.492188 C 17.128906 0.492188 21.195312 -3.214844 21.195312 -8.695312 C 21.195312 -14.140625 17.128906 -17.851562 11.125 -17.851562 C 5.085938 -17.851562 1.015625 -14.140625 1.015625 -8.695312 C 1.015625 -3.214844 5.085938 0.492188 11.125 0.492188 Z M 7.1875 -8.695312 C 7.1875 -10.992188 8.828125 -12.632812 11.125 -12.632812 C 13.421875 -12.632812 15.027344 -10.992188 15.027344 -8.695312 C 15.027344 -6.367188 13.421875 -4.726562 11.125 -4.726562 C 8.828125 -4.726562 7.1875 -6.367188 7.1875 -8.695312 Z M 7.1875 -8.695312 "/></g></g></g><g fill="#8c52ff" fill-opacity="1"><g transform="translate(132.386772, 271.467669)"><g><path d="M 9.875 0.492188 C 12.335938 0.492188 14.40625 -0.328125 15.945312 -1.738281 L 16.570312 0 L 21.097656 0 L 21.097656 -24.28125 L 14.796875 -24.28125 L 14.796875 -16.472656 C 13.421875 -17.359375 11.746094 -17.851562 9.875 -17.851562 C 4.660156 -17.851562 1.015625 -14.078125 1.015625 -8.695312 C 1.015625 -3.25 4.660156 0.492188 9.875 0.492188 Z M 7.1875 -8.695312 C 7.1875 -10.992188 8.792969 -12.632812 11.125 -12.632812 C 13.421875 -12.632812 15.027344 -10.992188 15.027344 -8.695312 C 15.027344 -6.367188 13.421875 -4.726562 11.125 -4.726562 C 8.792969 -4.726562 7.1875 -6.367188 7.1875 -8.695312 Z M 7.1875 -8.695312 "/></g></g></g><g fill="#8c52ff" fill-opacity="1"><g transform="translate(155.683669, 271.467669)"><g><path d="M 13.15625 0.492188 C 19.492188 0.492188 24.28125 -3.347656 25.265625 -9.1875 L 18.539062 -9.1875 C 17.71875 -7.023438 15.78125 -5.644531 13.289062 -5.644531 C 10.074219 -5.644531 7.84375 -8.039062 7.84375 -11.484375 C 7.84375 -14.960938 10.105469 -17.324219 13.355469 -17.324219 C 15.75 -17.324219 17.75 -15.980469 18.441406 -13.914062 L 25.132812 -13.914062 C 23.953125 -19.71875 19.226562 -23.460938 13.09375 -23.460938 C 6.003906 -23.460938 1.117188 -18.570312 1.117188 -11.484375 C 1.117188 -4.398438 6.003906 0.492188 13.15625 0.492188 Z M 13.15625 0.492188 "/></g></g></g><g fill="#8c52ff" fill-opacity="1"><g transform="translate(181.999322, 271.467669)"><g><path d="M 2.199219 0 L 8.5 0 L 8.5 -24.28125 L 2.199219 -24.28125 Z M 2.199219 0 "/></g></g></g><g fill="#8c52ff" fill-opacity="1"><g transform="translate(192.696206, 271.467669)"><g><path d="M 2.199219 0 L 8.5 0 L 8.5 -17.359375 L 2.199219 -17.359375 Z M 1.574219 -23.296875 C 1.574219 -21.132812 3.148438 -19.621094 5.347656 -19.621094 C 7.546875 -19.621094 9.121094 -21.132812 9.121094 -23.296875 C 9.121094 -25.460938 7.546875 -26.9375 5.347656 -26.9375 C 3.148438 -26.9375 1.574219 -25.460938 1.574219 -23.296875 Z M 1.574219 -23.296875 "/></g></g></g><g fill="#8c52ff" fill-opacity="1"><g transform="translate(203.393089, 271.467669)"><g><path d="M 13.386719 0.492188 C 18.636719 0.492188 22.28125 -3.25 22.28125 -8.695312 C 22.28125 -14.078125 18.636719 -17.851562 13.386719 -17.851562 C 10.960938 -17.851562 8.890625 -17.03125 7.382812 -15.617188 L 6.726562 -17.359375 L 2.199219 -17.359375 L 2.199219 6.5625 L 8.5 6.5625 L 8.5 -0.851562 C 9.84375 0 11.515625 0.492188 13.386719 0.492188 Z M 8.269531 -8.695312 C 8.269531 -10.992188 9.84375 -12.632812 12.171875 -12.632812 C 14.503906 -12.632812 16.078125 -10.992188 16.078125 -8.695312 C 16.078125 -6.367188 14.503906 -4.726562 12.171875 -4.726562 C 9.84375 -4.726562 8.269531 -6.367188 8.269531 -8.695312 Z M 8.269531 -8.695312 "/></g></g></g><g fill="#8c52ff" fill-opacity="1"><g transform="translate(226.689986, 271.467669)"><g><path d="M 13.386719 0.492188 C 18.636719 0.492188 22.28125 -3.25 22.28125 -8.695312 C 22.28125 -14.078125 18.636719 -17.851562 13.386719 -17.851562 C 10.960938 -17.851562 8.890625 -17.03125 7.382812 -15.617188 L 6.726562 -17.359375 L 2.199219 -17.359375 L 2.199219 6.5625 L 8.5 6.5625 L 8.5 -0.851562 C 9.84375 0 11.515625 0.492188 13.386719 0.492188 Z M 8.269531 -8.695312 C 8.269531 -10.992188 9.84375 -12.632812 12.171875 -12.632812 C 14.503906 -12.632812 16.078125 -10.992188 16.078125 -8.695312 C 16.078125 -6.367188 14.503906 -4.726562 12.171875 -4.726562 C 9.84375 -4.726562 8.269531 -6.367188 8.269531 -8.695312 Z M 8.269531 -8.695312 "/></g></g></g><g fill="#8c52ff" fill-opacity="1"><g transform="translate(249.986883, 271.467669)"><g><path d="M 10.828125 0.492188 C 15.324219 0.492188 18.769531 -1.738281 20.3125 -5.609375 L 14.207031 -5.609375 C 13.519531 -4.789062 12.304688 -4.265625 10.960938 -4.265625 C 9.1875 -4.265625 7.710938 -5.21875 7.25 -7.121094 L 20.640625 -7.121094 C 20.96875 -13.585938 17.0625 -17.851562 10.859375 -17.851562 C 5.054688 -17.851562 1.015625 -14.109375 1.015625 -8.695312 C 1.015625 -3.25 5.019531 0.492188 10.828125 0.492188 Z M 7.285156 -10.53125 C 7.808594 -12.207031 9.1875 -13.125 10.925781 -13.125 C 12.828125 -13.125 14.109375 -12.140625 14.632812 -10.53125 Z M 7.285156 -10.53125 "/></g></g></g><g fill="#8c52ff" fill-opacity="1"><g transform="translate(271.610344, 271.467669)"><g><path d="M 2.199219 0 L 8.5 0 L 8.5 -7.414062 C 8.5 -10.367188 9.777344 -11.714844 12.601562 -11.714844 L 14.601562 -11.714844 L 14.601562 -17.359375 L 12.566406 -17.359375 C 10.140625 -17.359375 8.597656 -16.703125 7.515625 -15.191406 L 6.726562 -17.359375 L 2.199219 -17.359375 Z M 2.199219 0 "/></g></g></g><g fill="#737373" fill-opacity="1"><g transform="translate(132.631307, 286.546445)"><g><path d="M 2.0625 -7.78125 C 2.644531 -7.78125 3.070312 -7.601562 3.34375 -7.25 C 3.625 -6.90625 3.765625 -6.441406 3.765625 -5.859375 L 3.765625 -5.640625 L 2.953125 -5.640625 L 2.953125 -5.890625 C 2.953125 -6.242188 2.882812 -6.515625 2.75 -6.703125 C 2.613281 -6.898438 2.390625 -7 2.078125 -7 C 1.765625 -7 1.539062 -6.898438 1.40625 -6.703125 C 1.269531 -6.515625 1.203125 -6.25 1.203125 -5.90625 C 1.203125 -5.625 1.265625 -5.375 1.390625 -5.15625 C 1.515625 -4.945312 1.671875 -4.75 1.859375 -4.5625 C 2.054688 -4.382812 2.265625 -4.207031 2.484375 -4.03125 C 2.710938 -3.863281 2.921875 -3.675781 3.109375 -3.46875 C 3.304688 -3.269531 3.46875 -3.039062 3.59375 -2.78125 C 3.71875 -2.519531 3.78125 -2.207031 3.78125 -1.84375 C 3.78125 -1.257812 3.640625 -0.789062 3.359375 -0.4375 C 3.078125 -0.09375 2.640625 0.078125 2.046875 0.078125 C 1.453125 0.078125 1.015625 -0.09375 0.734375 -0.4375 C 0.453125 -0.789062 0.3125 -1.257812 0.3125 -1.84375 L 0.3125 -2.28125 L 1.125 -2.28125 L 1.125 -1.796875 C 1.125 -1.453125 1.195312 -1.179688 1.34375 -0.984375 C 1.488281 -0.796875 1.71875 -0.703125 2.03125 -0.703125 C 2.332031 -0.703125 2.554688 -0.796875 2.703125 -0.984375 C 2.847656 -1.179688 2.921875 -1.453125 2.921875 -1.796875 C 2.921875 -2.085938 2.859375 -2.335938 2.734375 -2.546875 C 2.609375 -2.753906 2.445312 -2.945312 2.25 -3.125 C 2.0625 -3.3125 1.859375 -3.488281 1.640625 -3.65625 C 1.421875 -3.832031 1.210938 -4.019531 1.015625 -4.21875 C 0.828125 -4.425781 0.671875 -4.660156 0.546875 -4.921875 C 0.421875 -5.179688 0.359375 -5.492188 0.359375 -5.859375 C 0.359375 -6.453125 0.492188 -6.921875 0.765625 -7.265625 C 1.046875 -7.609375 1.476562 -7.78125 2.0625 -7.78125 Z M 2.0625 -7.78125 "/></g></g></g><g fill="#737373" fill-opacity="1"><g transform="translate(141.120458, 286.546445)"><g><path d="M 1.3125 -1.546875 L 1.015625 0 L 0.21875 0 L 1.6875 -7.703125 L 2.9375 -7.703125 L 4.40625 0 L 3.546875 0 L 3.25 -1.546875 Z M 1.421875 -2.28125 L 3.140625 -2.28125 L 2.265625 -6.734375 Z M 1.421875 -2.28125 "/></g></g></g><g fill="#737373" fill-opacity="1"><g transform="translate(150.159223, 286.546445)"><g><path d="M 1.09375 -7.703125 L 2.34375 -1 L 3.59375 -7.703125 L 4.375 -7.703125 L 2.9375 0 L 1.671875 0 L 0.21875 -7.703125 Z M 1.09375 -7.703125 "/></g></g></g><g fill="#737373" fill-opacity="1"><g transform="translate(159.154018, 286.546445)"><g><path d="M 3.171875 -4.296875 L 3.171875 -3.515625 L 1.296875 -3.515625 L 1.296875 -0.78125 L 3.609375 -0.78125 L 3.609375 0 L 0.4375 0 L 0.4375 -7.703125 L 3.609375 -7.703125 L 3.609375 -6.921875 L 1.296875 -6.921875 L 1.296875 -4.296875 Z M 3.171875 -4.296875 "/></g></g></g><g fill="#737373" fill-opacity="1"><g transform="translate(167.511266, 286.546445)"><g/></g></g><g fill="#737373" fill-opacity="1"><g transform="translate(173.615103, 286.546445)"><g><path d="M 2.25 -7.703125 C 2.84375 -7.703125 3.28125 -7.53125 3.5625 -7.1875 C 3.851562 -6.84375 4 -6.375 4 -5.78125 L 4 -1.90625 C 4 -1.3125 3.851562 -0.84375 3.5625 -0.5 C 3.28125 -0.164062 2.84375 0 2.25 0 L 0.4375 0 L 0.4375 -7.703125 Z M 2.234375 -0.78125 C 2.535156 -0.78125 2.757812 -0.875 2.90625 -1.0625 C 3.0625 -1.25 3.140625 -1.519531 3.140625 -1.875 L 3.140625 -5.828125 C 3.140625 -6.179688 3.0625 -6.453125 2.90625 -6.640625 C 2.757812 -6.828125 2.53125 -6.921875 2.21875 -6.921875 L 1.296875 -6.921875 L 1.296875 -0.78125 Z M 2.234375 -0.78125 "/></g></g></g><g fill="#737373" fill-opacity="1"><g transform="translate(182.368065, 286.546445)"><g><path d="M 3.171875 -4.296875 L 3.171875 -3.515625 L 1.296875 -3.515625 L 1.296875 -0.78125 L 3.609375 -0.78125 L 3.609375 0 L 0.4375 0 L 0.4375 -7.703125 L 3.609375 -7.703125 L 3.609375 -6.921875 L 1.296875 -6.921875 L 1.296875 -4.296875 Z M 3.171875 -4.296875 "/></g></g></g><g fill="#737373" fill-opacity="1"><g transform="translate(190.725312, 286.546445)"><g><path d="M 3.28125 -0.015625 L 2.453125 -0.015625 L 1.171875 -6.140625 L 1.171875 0 L 0.421875 0 L 0.421875 -7.703125 L 1.625 -7.703125 L 2.890625 -1.546875 L 4.109375 -7.703125 L 5.3125 -7.703125 L 5.3125 0 L 4.5 0 L 4.5 -6.1875 Z M 3.28125 -0.015625 "/></g></g></g><g fill="#737373" fill-opacity="1"><g transform="translate(200.874293, 286.546445)"><g/></g></g><g fill="#737373" fill-opacity="1"><g transform="translate(206.97813, 286.546445)"><g><path d="M 2.09375 -7.78125 C 2.6875 -7.78125 3.125 -7.601562 3.40625 -7.25 C 3.695312 -6.894531 3.84375 -6.425781 3.84375 -5.84375 L 3.84375 -5.140625 L 3.03125 -5.140625 L 3.03125 -5.890625 C 3.03125 -6.234375 2.957031 -6.503906 2.8125 -6.703125 C 2.664062 -6.898438 2.4375 -7 2.125 -7 C 1.8125 -7 1.582031 -6.898438 1.4375 -6.703125 C 1.289062 -6.503906 1.21875 -6.234375 1.21875 -5.890625 L 1.21875 -1.8125 C 1.21875 -1.457031 1.289062 -1.179688 1.4375 -0.984375 C 1.582031 -0.796875 1.8125 -0.703125 2.125 -0.703125 C 2.4375 -0.703125 2.664062 -0.796875 2.8125 -0.984375 C 2.957031 -1.179688 3.03125 -1.457031 3.03125 -1.8125 L 3.03125 -2.8125 L 3.84375 -2.8125 L 3.84375 -1.859375 C 3.84375 -1.273438 3.695312 -0.804688 3.40625 -0.453125 C 3.125 -0.0976562 2.6875 0.078125 2.09375 0.078125 C 1.507812 0.078125 1.078125 -0.0976562 0.796875 -0.453125 C 0.515625 -0.804688 0.375 -1.273438 0.375 -1.859375 L 0.375 -5.84375 C 0.375 -6.132812 0.40625 -6.398438 0.46875 -6.640625 C 0.539062 -6.878906 0.648438 -7.082031 0.796875 -7.25 C 0.941406 -7.414062 1.117188 -7.546875 1.328125 -7.640625 C 1.546875 -7.734375 1.800781 -7.78125 2.09375 -7.78125 Z M 2.09375 -7.78125 "/></g></g></g><g fill="#737373" fill-opacity="1"><g transform="translate(215.555219, 286.546445)"><g><path d="M 0.4375 0 L 0.4375 -7.703125 L 1.296875 -7.703125 L 1.296875 -0.78125 L 3.5 -0.78125 L 3.5 0 Z M 0.4375 0 "/></g></g></g><g fill="#737373" fill-opacity="1"><g transform="translate(223.659644, 286.546445)"><g><path d="M 1.296875 -7.703125 L 1.296875 0 L 0.4375 0 L 0.4375 -7.703125 Z M 1.296875 -7.703125 "/></g></g></g><g fill="#737373" fill-opacity="1"><g transform="translate(229.796446, 286.546445)"><g><path d="M 2.125 -7.703125 C 2.726562 -7.703125 3.164062 -7.535156 3.4375 -7.203125 C 3.707031 -6.867188 3.84375 -6.40625 3.84375 -5.8125 L 3.84375 -4.890625 C 3.84375 -4.273438 3.695312 -3.8125 3.40625 -3.5 C 3.125 -3.1875 2.675781 -3.03125 2.0625 -3.03125 L 1.296875 -3.03125 L 1.296875 0 L 0.4375 0 L 0.4375 -7.703125 Z M 2.0625 -3.8125 C 2.382812 -3.8125 2.617188 -3.890625 2.765625 -4.046875 C 2.921875 -4.203125 3 -4.46875 3 -4.84375 L 3 -5.859375 C 3 -6.210938 2.929688 -6.476562 2.796875 -6.65625 C 2.660156 -6.832031 2.4375 -6.921875 2.125 -6.921875 L 1.296875 -6.921875 L 1.296875 -3.8125 Z M 2.0625 -3.8125 "/></g></g></g><g fill="#737373" fill-opacity="1"><g transform="translate(238.274595, 286.546445)"><g><path d="M 2.0625 -7.78125 C 2.644531 -7.78125 3.070312 -7.601562 3.34375 -7.25 C 3.625 -6.90625 3.765625 -6.441406 3.765625 -5.859375 L 3.765625 -5.640625 L 2.953125 -5.640625 L 2.953125 -5.890625 C 2.953125 -6.242188 2.882812 -6.515625 2.75 -6.703125 C 2.613281 -6.898438 2.390625 -7 2.078125 -7 C 1.765625 -7 1.539062 -6.898438 1.40625 -6.703125 C 1.269531 -6.515625 1.203125 -6.25 1.203125 -5.90625 C 1.203125 -5.625 1.265625 -5.375 1.390625 -5.15625 C 1.515625 -4.945312 1.671875 -4.75 1.859375 -4.5625 C 2.054688 -4.382812 2.265625 -4.207031 2.484375 -4.03125 C 2.710938 -3.863281 2.921875 -3.675781 3.109375 -3.46875 C 3.304688 -3.269531 3.46875 -3.039062 3.59375 -2.78125 C 3.71875 -2.519531 3.78125 -2.207031 3.78125 -1.84375 C 3.78125 -1.257812 3.640625 -0.789062 3.359375 -0.4375 C 3.078125 -0.09375 2.640625 0.078125 2.046875 0.078125 C 1.453125 0.078125 1.015625 -0.09375 0.734375 -0.4375 C 0.453125 -0.789062 0.3125 -1.257812 0.3125 -1.84375 L 0.3125 -2.28125 L 1.125 -2.28125 L 1.125 -1.796875 C 1.125 -1.453125 1.195312 -1.179688 1.34375 -0.984375 C 1.488281 -0.796875 1.71875 -0.703125 2.03125 -0.703125 C 2.332031 -0.703125 2.554688 -0.796875 2.703125 -0.984375 C 2.847656 -1.179688 2.921875 -1.453125 2.921875 -1.796875 C 2.921875 -2.085938 2.859375 -2.335938 2.734375 -2.546875 C 2.609375 -2.753906 2.445312 -2.945312 2.25 -3.125 C 2.0625 -3.3125 1.859375 -3.488281 1.640625 -3.65625 C 1.421875 -3.832031 1.210938 -4.019531 1.015625 -4.21875 C 0.828125 -4.425781 0.671875 -4.660156 0.546875 -4.921875 C 0.421875 -5.179688 0.359375 -5.492188 0.359375 -5.859375 C 0.359375 -6.453125 0.492188 -6.921875 0.765625 -7.265625 C 1.046875 -7.609375 1.476562 -7.78125 2.0625 -7.78125 Z M 2.0625 -7.78125 "/></g></g></g></svg>